<?xml version="1.0" encoding="UTF-8"?>
<!DOCTYPE svg PUBLIC "-//W3C//DTD SVG 1.1//EN" "http://www.w3.org/Graphics/SVG/1.1/DTD/svg11.dtd">
<!-- Creator: CorelDRAW -->
<svg xmlns="http://www.w3.org/2000/svg" xml:space="preserve" width="17713" height="7259" version="1.1" style="shape-rendering:geometricPrecision; text-rendering:geometricPrecision; image-rendering:optimizeQuality; fill-rule:evenodd; clip-rule:evenodd"
viewBox="5993 6877 17713 7259"
 xmlns:xlink="http://www.w3.org/1999/xlink"
 xmlns:xodm="http://www.corel.com/coreldraw/odm/2003">
 <defs>
  <style type="text/css">
   <![CDATA[
    .fil1 {fill:#FDC814}
    .fil0 {fill:#33398A}
   ]]>
  </style>
 </defs>
 <g id="Layer_x0020_1">
  <metadata id="CorelCorpID_0Corel-Layer"/>
  <path class="fil0" d="M9290.76 12721.23l2079.71 -5643.83 976.97 0 0 6731.31 -735.71 0 0 -5392.59 -1987.29 5392.59 -662.54 0 -2024.23 -5399.29 0 5399.29 -744.83 0 0 -6731.31 971.96 0 2125.96 5643.83zm4660.23 -1182.6c6.25,460.88 105.28,928.33 402.43,1293.48 274.32,337.13 635.55,488.02 1067.75,488.02 325.25,0 630.61,-80.22 886.77,-285.58 247.29,-198.26 381.12,-465.14 428.97,-776.7l9.74 -63.56 698.31 0 -10.39 84.12c-60.04,486.59 -269.95,896.21 -652.63,1206.89 -400.76,325.36 -885.3,451.56 -1395.89,451.56 -624.02,0 -1171.91,-198.47 -1576.95,-682.87 -435.95,-521.34 -566.64,-1208.33 -566.64,-1871.17 0,-671.15 130.54,-1371.38 569.48,-1901.4 407.52,-492.06 961.33,-692.3 1592.42,-692.3 608.7,0 1150.42,189.64 1546.46,663.02 425.58,508.7 551.41,1183.55 551.41,1830.03l0 256.46 -3551.24 0zm5116.79 -1921.19c312.37,-512.61 799.05,-708.77 1452.18,-708.77l74.96 0 0 542.98 -74.96 0c-941.06,0 -1409.58,985.71 -1409.58,1811.69l0 2545.37 -717.29 0 -7.72 -4906.3 682.41 0 0 715.03zm2154.97 4191.27l0 -4900.58 699.09 0 0 4900.58 -699.09 0zm1584.26 0.02l0 -6650.55 699.09 0 0 6650.55 -699.09 0zm-8842.24 -2859.23l2815.56 4.3c-28.51,-401.79 -135.66,-804.08 -404.4,-1114.63 -257.03,-297.03 -590.75,-424.14 -980.69,-424.14 -397.79,0 -738.13,132.59 -1006.06,431.22 -275.98,307.65 -393.15,699.45 -424.41,1103.25z"/>
  <path class="fil0" d="M22133.45 7729.26c0,319.1 -258.71,576.91 -577.05,576.91 -319.08,0 -576.89,-257.81 -576.89,-576.91 0,-318.18 257.81,-576.88 576.89,-576.88 318.34,0 577.05,258.7 577.05,576.88z"/>
  <path class="fil1" d="M19303.61 7729.26c0,319.1 -258.71,576.91 -577.04,576.91 -319.09,0 -576.9,-257.81 -576.9,-576.91 0,-318.18 257.81,-576.88 576.9,-576.88 318.33,0 577.04,258.7 577.04,576.88z"/>
 </g>
</svg>
